<?xml version="1.0" encoding="utf-8"?>
<!-- Generator: Adobe Illustrator 28.1.0, SVG Export Plug-In . SVG Version: 6.00 Build 0)  -->
<svg version="1.1" id="Layer_1" xmlns="http://www.w3.org/2000/svg" xmlns:xlink="http://www.w3.org/1999/xlink" x="0px" y="0px"
	 viewBox="0 0 177 72" style="enable-background:new 0 0 177 72;" xml:space="preserve">
<style type="text/css">
	.st0{fill:#F15D57;}
	.st1{fill:#FFD56C;}
	.st2{fill:#78CAB5;}
	.st3{fill:#EFF4E1;}
</style>
<g>
	<path d="M176.44,19.88H0.56C0.25,19.88,0,19.63,0,19.32v0c0-0.31,0.25-0.56,0.56-0.56h175.88c0.31,0,0.56,0.25,0.56,0.56v0
		C177,19.63,176.75,19.88,176.44,19.88z"/>
	<path d="M176.44,22.65H0.56C0.25,22.65,0,22.4,0,22.09v0c0-0.31,0.25-0.56,0.56-0.56h175.88c0.31,0,0.56,0.25,0.56,0.56v0
		C177,22.4,176.75,22.65,176.44,22.65z"/>
	<path d="M176.44,25.41H0.56C0.25,25.41,0,25.16,0,24.85v0c0-0.31,0.25-0.56,0.56-0.56h175.88c0.31,0,0.56,0.25,0.56,0.56v0
		C177,25.16,176.75,25.41,176.44,25.41z"/>
	<path d="M176.44,28.17H0.56C0.25,28.17,0,27.92,0,27.62v0c0-0.31,0.25-0.56,0.56-0.56h175.88c0.31,0,0.56,0.25,0.56,0.56v0
		C177,27.92,176.75,28.17,176.44,28.17z"/>
	<path d="M176.44,30.94H0.56C0.25,30.94,0,30.69,0,30.38v0c0-0.31,0.25-0.56,0.56-0.56h175.88c0.31,0,0.56,0.25,0.56,0.56v0
		C177,30.69,176.75,30.94,176.44,30.94z"/>
	<path d="M176.44,33.7H0.56C0.25,33.7,0,33.45,0,33.14l0,0c0-0.31,0.25-0.56,0.56-0.56h175.88c0.31,0,0.56,0.25,0.56,0.56l0,0
		C177,33.45,176.75,33.7,176.44,33.7z"/>
	<path d="M176.44,36.47H0.56C0.25,36.47,0,36.22,0,35.91l0,0c0-0.31,0.25-0.56,0.56-0.56h175.88c0.31,0,0.56,0.25,0.56,0.56l0,0
		C177,36.22,176.75,36.47,176.44,36.47z"/>
	<path d="M176.44,39.23H0.56C0.25,39.23,0,38.98,0,38.67l0,0c0-0.31,0.25-0.56,0.56-0.56h175.88c0.31,0,0.56,0.25,0.56,0.56l0,0
		C177,38.98,176.75,39.23,176.44,39.23z"/>
</g>
<g>
	<path class="st0" d="M55.4,64.61h-0.28c-4.44,0-8.4-1.61-11.45-4.67c-3.06-3.06-4.67-7.02-4.67-11.45v-8.56h-0.14v5.3
		c0,2.6-0.95,4.89-2.74,6.65c-1.76,1.73-4.04,2.64-6.6,2.64c-2.58,0-4.86-0.93-6.61-2.68c-1.75-1.75-2.67-4.04-2.67-6.61V18.58
		c0-2.58,0.92-4.86,2.67-6.61c1.75-1.75,4.04-2.68,6.61-2.68c2.56,0,4.84,0.92,6.6,2.65c1.79,1.76,2.73,4.06,2.73,6.65v2.72h0.14
		v-2.72c0-2.58,0.92-4.86,2.67-6.62c1.75-1.76,4.04-2.69,6.62-2.69c2.55,0,4.84,0.91,6.6,2.64c1.79,1.76,2.74,4.06,2.74,6.65v27.65
		c1.67,0.38,3.17,1.21,4.41,2.45c1.76,1.76,2.7,4.06,2.7,6.64c0,2.59-0.95,4.89-2.73,6.65l0,0C60.24,63.7,57.96,64.61,55.4,64.61z"
		/>
	<path class="st0" d="M66.69,64.61H66.5c-2.56,0-4.84-0.91-6.6-2.64c-1.79-1.75-2.74-4.05-2.74-6.65c0-1.21,0.21-2.35,0.61-3.41
		c-0.89-0.59-1.73-1.27-2.5-2.04c-3.05-3.04-4.66-7.02-4.66-11.49V27.99c0-2.58,0.92-4.86,2.67-6.61c1.75-1.75,4.04-2.68,6.62-2.68
		c2.59,0,4.88,0.91,6.62,2.62c0.07,0.07,0.14,0.14,0.21,0.22c0.06-0.06,0.12-0.13,0.19-0.19c1.76-1.73,4.04-2.64,6.6-2.64
		c2.57,0,4.86,0.93,6.61,2.68c1.75,1.76,2.68,4.04,2.68,6.62v20.49c0,4.44-1.61,8.4-4.67,11.46C75.08,62.99,71.12,64.61,66.69,64.61
		z"/>
	<path class="st0" d="M85.17,63.92c-2.6,0-4.9-0.95-6.65-2.74c-1.72-1.76-2.64-4.04-2.64-6.6V36.62c0-5.02,1.74-9.31,5.17-12.75
		c3.43-3.44,7.72-5.18,12.74-5.18c5.01,0,9.3,1.74,12.75,5.17c3.46,3.44,5.21,7.73,5.21,12.76c0,5.02-1.75,9.32-5.19,12.77
		c-3.29,3.29-7.34,5.04-12.05,5.2c0,2.57-0.93,4.86-2.69,6.62C90.05,62.99,87.75,63.92,85.17,63.92z"/>
	<path class="st0" d="M126.78,54.61h-4.08c-4.95,0-9.36-1.8-12.75-5.22c-3.42-3.45-5.16-7.74-5.16-12.76
		c0-5.02,1.74-9.31,5.17-12.75c3.44-3.44,7.72-5.19,12.74-5.19c4.71,0,8.94,1.67,12.3,4.85l3.42-0.81l-2.15,2.17
		c1.34,1.68,2.05,3.64,2.05,5.72c0,2.8-1.21,5.34-3.42,7.18l-1.21,1.18c1.56,1.71,2.38,3.88,2.38,6.3c0,2.56-0.91,4.84-2.64,6.6
		C131.67,53.66,129.37,54.61,126.78,54.61z"/>
	<path class="st0" d="M140.63,54.52c-2.58,0-4.87-0.93-6.62-2.68c-1.75-1.75-2.67-4.04-2.67-6.61V34.79c0-4.45,1.62-8.41,4.68-11.45
		c3.05-3.04,7.01-4.64,11.44-4.64c2.55,0,4.83,0.93,6.59,2.7c1.76,1.77,2.7,4.05,2.7,6.59c0,2.39-0.8,4.54-2.32,6.2l0,0
		c-0.84,0.93-2.27,2.08-4.47,2.69v8.33c0,2.6-0.94,4.9-2.73,6.65C145.47,53.6,143.19,54.52,140.63,54.52z"/>
</g>
<g>
	<path class="st1" d="M55.4,60.19h-0.28c-4.44,0-8.4-1.61-11.45-4.67c-3.06-3.06-4.67-7.02-4.67-11.45v-8.56h-0.14v5.3
		c0,2.6-0.95,4.89-2.74,6.65c-1.76,1.73-4.04,2.64-6.6,2.64c-2.58,0-4.86-0.93-6.61-2.68c-1.75-1.75-2.67-4.04-2.67-6.61V14.16
		c0-2.58,0.92-4.86,2.67-6.61c1.75-1.75,4.04-2.68,6.61-2.68c2.56,0,4.84,0.92,6.6,2.65c1.79,1.76,2.73,4.06,2.73,6.65v2.72h0.14
		v-2.72c0-2.58,0.92-4.86,2.67-6.62c1.75-1.76,4.04-2.69,6.62-2.69c2.55,0,4.84,0.91,6.6,2.64c1.79,1.76,2.74,4.06,2.74,6.65v27.65
		c1.67,0.38,3.17,1.21,4.41,2.45c1.76,1.76,2.7,4.06,2.7,6.64c0,2.59-0.95,4.89-2.73,6.65l0,0C60.24,59.28,57.96,60.19,55.4,60.19z"
		/>
	<path class="st1" d="M66.69,60.19H66.5c-2.56,0-4.84-0.91-6.6-2.64c-1.79-1.75-2.74-4.05-2.74-6.65c0-1.21,0.21-2.35,0.61-3.41
		c-0.89-0.59-1.73-1.27-2.5-2.04c-3.05-3.04-4.66-7.02-4.66-11.49V23.57c0-2.58,0.92-4.86,2.67-6.61c1.75-1.75,4.04-2.68,6.62-2.68
		c2.59,0,4.88,0.91,6.62,2.62c0.07,0.07,0.14,0.14,0.21,0.22c0.06-0.06,0.12-0.13,0.19-0.19c1.76-1.73,4.04-2.64,6.6-2.64
		c2.57,0,4.86,0.93,6.61,2.68c1.75,1.76,2.68,4.04,2.68,6.62v20.49c0,4.44-1.61,8.4-4.67,11.46C75.09,58.57,71.12,60.19,66.69,60.19
		z"/>
	<path class="st1" d="M85.17,59.5c-2.6,0-4.9-0.95-6.65-2.74c-1.72-1.76-2.64-4.04-2.64-6.6V32.2c0-5.02,1.74-9.31,5.17-12.75
		c3.43-3.44,7.72-5.18,12.74-5.18c5.01,0,9.3,1.74,12.75,5.17c3.46,3.44,5.21,7.73,5.21,12.76c0,5.02-1.75,9.32-5.19,12.77
		c-3.29,3.29-7.34,5.04-12.05,5.2c0,2.57-0.93,4.86-2.69,6.62C90.05,58.57,87.75,59.5,85.17,59.5z"/>
	<path class="st1" d="M126.78,50.19h-4.08c-4.95,0-9.36-1.8-12.75-5.22c-3.42-3.45-5.16-7.74-5.16-12.76
		c0-5.02,1.74-9.31,5.17-12.75c3.44-3.44,7.72-5.19,12.74-5.19c4.71,0,8.94,1.67,12.3,4.85l3.42-0.81l-2.15,2.17
		c1.34,1.68,2.05,3.64,2.05,5.72c0,2.8-1.21,5.34-3.42,7.18l-1.21,1.18c1.56,1.71,2.38,3.88,2.38,6.3c0,2.56-0.91,4.84-2.64,6.6
		C131.67,49.24,129.37,50.19,126.78,50.19z"/>
	<path class="st1" d="M140.63,50.1c-2.58,0-4.87-0.93-6.62-2.68c-1.75-1.75-2.67-4.04-2.67-6.61V30.37c0-4.45,1.62-8.41,4.68-11.45
		c3.05-3.04,7.01-4.64,11.44-4.64c2.55,0,4.83,0.93,6.59,2.7c1.76,1.77,2.7,4.05,2.7,6.59c0,2.39-0.8,4.54-2.32,6.2l0,0
		c-0.84,0.93-2.27,2.08-4.47,2.69v8.33c0,2.6-0.94,4.9-2.73,6.65C145.47,49.18,143.19,50.1,140.63,50.1z"/>
</g>
<g>
	<path class="st2" d="M55.4,56.28h-0.28c-4.44,0-8.4-1.61-11.45-4.67c-3.06-3.06-4.67-7.02-4.67-11.45V31.6h-0.14v5.3
		c0,2.6-0.95,4.89-2.74,6.65c-1.76,1.73-4.04,2.64-6.6,2.64c-2.58,0-4.86-0.93-6.61-2.68c-1.75-1.75-2.67-4.04-2.67-6.61V10.25
		c0-2.58,0.92-4.86,2.67-6.61c1.75-1.75,4.04-2.68,6.61-2.68c2.56,0,4.84,0.92,6.6,2.65c1.79,1.76,2.73,4.06,2.73,6.65v2.72h0.14
		v-2.72c0-2.58,0.92-4.86,2.67-6.62c1.75-1.76,4.04-2.69,6.62-2.69c2.55,0,4.84,0.91,6.6,2.64c1.79,1.76,2.74,4.06,2.74,6.65V37.9
		c1.67,0.38,3.17,1.21,4.41,2.45c1.76,1.76,2.7,4.06,2.7,6.64c0,2.59-0.95,4.89-2.73,6.65l0,0C60.24,55.36,57.96,56.28,55.4,56.28z"
		/>
	<path class="st2" d="M66.69,56.28H66.5c-2.56,0-4.84-0.91-6.6-2.64c-1.79-1.75-2.74-4.05-2.74-6.65c0-1.21,0.21-2.35,0.61-3.41
		c-0.89-0.59-1.73-1.27-2.5-2.04c-3.05-3.04-4.66-7.02-4.66-11.49V19.66c0-2.58,0.92-4.86,2.67-6.61c1.75-1.75,4.04-2.68,6.62-2.68
		c2.59,0,4.88,0.91,6.62,2.62c0.07,0.07,0.14,0.14,0.21,0.22c0.06-0.06,0.12-0.13,0.19-0.19c1.76-1.73,4.04-2.64,6.6-2.64
		c2.57,0,4.86,0.93,6.61,2.68c1.75,1.76,2.68,4.04,2.68,6.62v20.49c0,4.44-1.61,8.4-4.67,11.46C75.09,54.66,71.12,56.28,66.69,56.28
		z"/>
	<path class="st2" d="M85.17,55.59c-2.6,0-4.9-0.95-6.65-2.74c-1.72-1.76-2.64-4.04-2.64-6.6V28.29c0-5.02,1.74-9.31,5.17-12.75
		c3.43-3.44,7.72-5.18,12.74-5.18c5.01,0,9.3,1.74,12.75,5.17c3.46,3.44,5.21,7.73,5.21,12.76c0,5.02-1.75,9.32-5.19,12.77
		c-3.29,3.29-7.34,5.04-12.05,5.2c0,2.57-0.93,4.86-2.69,6.62C90.05,54.65,87.75,55.59,85.17,55.59z"/>
	<path class="st2" d="M126.78,46.28h-4.08c-4.95,0-9.36-1.8-12.75-5.22c-3.42-3.45-5.16-7.74-5.16-12.76
		c0-5.02,1.74-9.31,5.17-12.75c3.44-3.44,7.72-5.19,12.74-5.19c4.71,0,8.94,1.67,12.3,4.85l3.42-0.81l-2.15,2.17
		c1.34,1.68,2.05,3.64,2.05,5.72c0,2.8-1.21,5.34-3.42,7.18l-1.21,1.18c1.56,1.71,2.38,3.88,2.38,6.3c0,2.56-0.91,4.84-2.64,6.6
		C131.67,45.33,129.37,46.28,126.78,46.28z"/>
	<path class="st2" d="M140.63,46.18c-2.58,0-4.87-0.93-6.62-2.68c-1.75-1.75-2.67-4.04-2.67-6.61V26.46c0-4.45,1.62-8.41,4.68-11.45
		c3.05-3.04,7.01-4.64,11.44-4.64c2.55,0,4.83,0.93,6.59,2.7c1.76,1.77,2.7,4.05,2.7,6.59c0,2.39-0.8,4.54-2.32,6.2l0,0
		c-0.84,0.93-2.27,2.08-4.47,2.69v8.33c0,2.6-0.94,4.9-2.73,6.65C145.47,45.27,143.19,46.18,140.63,46.18z"/>
</g>
<g>
	<path class="st3" d="M58.62,47.18c-0.76,0.74-1.71,1.11-2.86,1.11h-0.27c-3.03,0-5.57-1.03-7.62-3.09
		c-2.06-2.06-3.09-4.6-3.09-7.62V23.87H34.15v10.48c0,1.15-0.38,2.1-1.13,2.84c-0.76,0.74-1.71,1.11-2.86,1.11
		c-1.15,0-2.1-0.37-2.84-1.11c-0.74-0.74-1.11-1.69-1.11-2.84V7.99c0-1.15,0.37-2.1,1.11-2.84c0.74-0.74,1.69-1.11,2.84-1.11
		c1.15,0,2.1,0.37,2.86,1.12C33.78,5.9,34.15,6.85,34.15,8v7.93h10.62V8c0-1.15,0.37-2.1,1.11-2.85c0.74-0.74,1.69-1.12,2.84-1.12
		c1.15,0,2.1,0.37,2.86,1.11c0.76,0.74,1.13,1.69,1.13,2.84v29.58c0,0.79,0.26,1.45,0.79,1.98c0.53,0.53,1.19,0.79,1.97,0.79h0.27
		c1.15,0,2.1,0.38,2.86,1.13c0.76,0.76,1.13,1.71,1.13,2.86C59.75,45.49,59.37,46.43,58.62,47.18z"/>
	<path class="st3" d="M69.69,37.98C68.84,38.2,67.94,38.3,67,38.3c-3.07,0-5.62-1.02-7.67-3.07c-2.05-2.05-3.07-4.6-3.07-7.66V17.3
		c0-1.15,0.37-2.1,1.11-2.84c0.74-0.74,1.69-1.11,2.84-1.11c1.18,0,2.14,0.36,2.88,1.09c0.74,0.73,1.11,1.68,1.11,2.87v10.28
		c0,0.79,0.26,1.45,0.79,1.98c0.53,0.53,1.19,0.8,1.97,0.8c0.79,0,1.44-0.27,1.95-0.8c0.51-0.53,0.77-1.19,0.77-1.98V17.3
		c0-1.15,0.38-2.1,1.13-2.84c0.76-0.74,1.71-1.11,2.86-1.11c1.15,0,2.09,0.37,2.84,1.11c0.74,0.74,1.11,1.69,1.11,2.84v20.27
		c0,3.03-1.03,5.57-3.09,7.64c-2.06,2.06-4.6,3.09-7.62,3.09h-0.18c-1.15,0-2.1-0.37-2.86-1.11c-0.76-0.74-1.13-1.69-1.13-2.84
		c0-1.15,0.38-2.1,1.14-2.86c0.76-0.76,1.72-1.13,2.88-1.13h0.18c0.67,0,1.27-0.23,1.8-0.68C69.29,39.21,69.6,38.65,69.69,37.98z"/>
	<path class="st3" d="M93.74,38.39c-1.15,0-2.1-0.38-2.84-1.13c-0.74-0.76-1.11-1.71-1.11-2.86c0-1.15,0.37-2.09,1.11-2.84
		c0.74-0.74,1.69-1.11,2.84-1.11c1.27,0,2.35-0.45,3.24-1.35c0.89-0.9,1.34-1.98,1.34-3.26c0-1.28-0.45-2.36-1.34-3.24
		c-0.89-0.88-1.97-1.32-3.24-1.32c-1.27,0-2.35,0.44-3.22,1.32c-0.88,0.88-1.32,1.95-1.32,3.23v17.78c0,1.15-0.38,2.11-1.13,2.86
		c-0.76,0.76-1.71,1.14-2.86,1.14c-1.15,0-2.1-0.38-2.84-1.14c-0.74-0.76-1.11-1.71-1.11-2.86V25.84c0-3.54,1.19-6.51,3.59-8.91
		c2.39-2.39,5.35-3.59,8.9-3.59c3.54,0,6.51,1.2,8.92,3.59c2.41,2.39,3.61,5.37,3.61,8.91c0,3.55-1.2,6.52-3.61,8.93
		C100.25,37.19,97.28,38.39,93.74,38.39z"/>
	<path class="st3" d="M121.28,21.41c-1.03,0.24-1.86,0.78-2.51,1.61c-0.65,0.83-0.97,1.78-0.97,2.84c0,1.27,0.44,2.36,1.32,3.25
		c0.88,0.89,1.95,1.34,3.22,1.34h4.04c1.15,0,2.09,0.37,2.84,1.11c0.74,0.74,1.11,1.69,1.11,2.84c0,1.15-0.37,2.1-1.11,2.86
		c-0.74,0.76-1.69,1.13-2.84,1.13h-4.04c-3.54,0-6.51-1.2-8.9-3.61c-2.39-2.41-3.59-5.39-3.59-8.93c0-3.55,1.19-6.52,3.59-8.91
		c2.39-2.39,5.35-3.59,8.9-3.59c3.57,0,6.58,1.28,9.03,3.82c0.79,0.82,1.18,1.73,1.18,2.73c0,1.27-0.54,2.34-1.63,3.19l-5.76,5.64
		c-0.85,0.82-1.77,1.23-2.77,1.23c-1.12,0-2.07-0.4-2.86-1.2c-0.79-0.8-1.18-1.76-1.18-2.88c0-0.85,0.33-1.68,0.99-2.5L121.28,21.41
		z"/>
	<path class="st3" d="M149.86,19.91c-0.62,0.68-1.51,1.11-2.65,1.3c-2.09,0.36-3.13,1.3-3.13,2.82v10.32c0,1.15-0.38,2.1-1.13,2.84
		c-0.76,0.74-1.71,1.11-2.86,1.11c-1.15,0-2.1-0.37-2.84-1.11c-0.74-0.74-1.11-1.69-1.11-2.84V24.03c0-3.03,1.03-5.57,3.09-7.62
		c2.06-2.05,4.6-3.07,7.62-3.07c1.12,0,2.06,0.38,2.81,1.14c0.76,0.76,1.13,1.7,1.13,2.82C150.79,18.36,150.48,19.23,149.86,19.91z"
		/>
</g>
<g>
	<path d="M103.03,61.37c-0.23,0.05-0.42,0.18-0.57,0.36c-0.15,0.19-0.22,0.4-0.22,0.64c0,0.29,0.1,0.53,0.3,0.73
		c0.2,0.2,0.44,0.3,0.73,0.3h0.91c0.26,0,0.47,0.08,0.64,0.25c0.17,0.17,0.25,0.38,0.25,0.64c0,0.26-0.08,0.47-0.25,0.64
		c-0.17,0.17-0.38,0.26-0.64,0.26h-0.91c-0.8,0-1.47-0.27-2.01-0.82c-0.54-0.54-0.81-1.22-0.81-2.02c0-0.8,0.27-1.47,0.81-2.01
		c0.54-0.54,1.21-0.81,2.01-0.81c0.81,0,1.48,0.29,2.04,0.86c0.18,0.19,0.27,0.39,0.27,0.62c0,0.29-0.12,0.53-0.37,0.72l-1.3,1.27
		c-0.19,0.18-0.4,0.28-0.62,0.28c-0.25,0-0.47-0.09-0.64-0.27c-0.18-0.18-0.27-0.4-0.27-0.65c0-0.19,0.07-0.38,0.22-0.56
		L103.03,61.37z"/>
	<path d="M111.86,67.18c-0.17,0.17-0.39,0.25-0.65,0.25h-0.04c-0.69,0-1.26-0.23-1.72-0.69c-0.46-0.46-0.69-1.04-0.69-1.73v-0.48
		v-2.57c0-0.17-0.06-0.32-0.18-0.44c-0.12-0.12-0.27-0.18-0.44-0.18c-0.18,0-0.33,0.06-0.45,0.17c-0.12,0.12-0.18,0.26-0.18,0.44
		v2.33c0,0.26-0.09,0.47-0.26,0.64c-0.17,0.17-0.39,0.25-0.64,0.25c-0.26,0-0.47-0.08-0.64-0.25c-0.17-0.17-0.25-0.38-0.25-0.64
		v-2.33c0-0.68,0.23-1.26,0.7-1.72c0.46-0.46,1.04-0.69,1.72-0.69s1.26,0.23,1.72,0.69c0.46,0.46,0.7,1.03,0.7,1.72v3.06
		c0,0.18,0.06,0.33,0.18,0.45c0.12,0.12,0.27,0.18,0.44,0.18h0.04c0.26,0,0.47,0.09,0.65,0.26c0.17,0.17,0.26,0.39,0.26,0.64
		C112.11,66.8,112.03,67.01,111.86,67.18z"/>
	<path d="M113.27,61.37c-0.23,0.05-0.42,0.18-0.57,0.36c-0.15,0.19-0.22,0.4-0.22,0.64c0,0.29,0.1,0.53,0.3,0.73
		c0.2,0.2,0.44,0.3,0.73,0.3h0.91c0.26,0,0.47,0.08,0.64,0.25c0.17,0.17,0.25,0.38,0.25,0.64c0,0.26-0.08,0.47-0.25,0.64
		c-0.17,0.17-0.38,0.26-0.64,0.26h-0.91c-0.8,0-1.47-0.27-2.01-0.82c-0.54-0.54-0.81-1.22-0.81-2.02c0-0.8,0.27-1.47,0.81-2.01
		c0.54-0.54,1.21-0.81,2.01-0.81c0.81,0,1.48,0.29,2.04,0.86c0.18,0.19,0.27,0.39,0.27,0.62c0,0.29-0.12,0.53-0.37,0.72l-1.3,1.27
		c-0.19,0.18-0.4,0.28-0.62,0.28c-0.25,0-0.47-0.09-0.64-0.27c-0.18-0.18-0.27-0.4-0.27-0.65c0-0.19,0.07-0.38,0.22-0.56
		L113.27,61.37z"/>
	<path d="M119.05,61.03c-0.14,0.15-0.34,0.25-0.6,0.29c-0.47,0.08-0.71,0.29-0.71,0.64v2.33c0,0.26-0.09,0.47-0.26,0.64
		c-0.17,0.17-0.39,0.25-0.64,0.25c-0.26,0-0.47-0.08-0.64-0.25c-0.17-0.17-0.25-0.38-0.25-0.64v-2.33c0-0.68,0.23-1.26,0.7-1.72
		c0.46-0.46,1.04-0.69,1.72-0.69c0.25,0,0.46,0.09,0.63,0.26c0.17,0.17,0.26,0.38,0.26,0.64C119.26,60.68,119.19,60.88,119.05,61.03
		z"/>
	<path d="M122.22,71.04c-0.79,0-1.46-0.27-2-0.81c-0.54-0.54-0.81-1.21-0.81-2c0-0.79,0.27-1.46,0.81-2.01
		c0.54-0.55,1.2-0.82,2-0.82h0.89c0.1,0,0.14-0.05,0.14-0.15v-2.88c0-0.29-0.1-0.53-0.3-0.73c-0.2-0.2-0.44-0.3-0.73-0.3
		c-0.29,0-0.53,0.1-0.73,0.3c-0.2,0.2-0.3,0.44-0.3,0.73c0,0.29,0.1,0.53,0.3,0.74c0.2,0.2,0.44,0.3,0.73,0.3
		c0.26,0,0.47,0.08,0.65,0.25c0.17,0.17,0.26,0.38,0.26,0.64c0,0.26-0.09,0.47-0.26,0.64c-0.17,0.17-0.39,0.26-0.65,0.26
		c-0.8,0-1.47-0.27-2.01-0.82c-0.54-0.54-0.81-1.22-0.81-2.02c0-0.8,0.27-1.47,0.81-2.01c0.54-0.54,1.21-0.81,2.01-0.81
		c0.8,0,1.47,0.27,2.01,0.81c0.54,0.54,0.81,1.21,0.81,2.01v2.88c0,0.55-0.19,1.01-0.56,1.38c-0.38,0.38-0.83,0.56-1.37,0.56h-0.88
		c-0.29,0-0.53,0.1-0.73,0.3c-0.2,0.2-0.3,0.44-0.3,0.73c0,0.29,0.1,0.53,0.3,0.73c0.2,0.2,0.44,0.3,0.73,0.3
		c0.29,0,0.53-0.1,0.73-0.29c0.2-0.19,0.3-0.43,0.3-0.71c0-0.28,0.08-0.56,0.25-0.85c0.18-0.32,0.4-0.48,0.66-0.48
		c0.26,0,0.48,0.16,0.66,0.48c0.16,0.27,0.24,0.55,0.24,0.83c0,0.79-0.27,1.46-0.81,2C123.67,70.77,123.01,71.04,122.22,71.04z"/>
	<path d="M128.21,65.11c-0.19,0.05-0.39,0.07-0.61,0.07c-0.69,0-1.27-0.23-1.73-0.69s-0.69-1.04-0.69-1.73v-2.32
		c0-0.26,0.08-0.47,0.25-0.64c0.17-0.17,0.38-0.25,0.64-0.25c0.27,0,0.48,0.08,0.65,0.25c0.17,0.16,0.25,0.38,0.25,0.65v2.32
		c0,0.18,0.06,0.33,0.18,0.45c0.12,0.12,0.27,0.18,0.44,0.18c0.18,0,0.32-0.06,0.44-0.18c0.12-0.12,0.17-0.27,0.17-0.45v-2.32
		c0-0.26,0.09-0.47,0.26-0.64c0.17-0.17,0.39-0.25,0.64-0.25s0.47,0.08,0.64,0.25c0.17,0.17,0.25,0.38,0.25,0.64v4.57
		c0,0.68-0.23,1.26-0.7,1.72c-0.46,0.46-1.04,0.7-1.72,0.7h-0.04c-0.26,0-0.47-0.08-0.64-0.25c-0.17-0.17-0.26-0.38-0.26-0.64
		c0-0.26,0.09-0.47,0.26-0.64c0.17-0.17,0.39-0.26,0.65-0.26h0.04c0.15,0,0.29-0.05,0.41-0.15S128.19,65.26,128.21,65.11z"/>
	<path d="M136.07,65.18c-0.79,0-1.46-0.27-2-0.81c-0.54-0.54-0.81-1.21-0.81-2v-4.02c0-0.25,0.09-0.46,0.26-0.63
		c0.17-0.17,0.38-0.26,0.63-0.26c0.26,0,0.47,0.08,0.64,0.25c0.17,0.17,0.26,0.38,0.26,0.64v4.02c0,0.29,0.1,0.53,0.3,0.73
		c0.2,0.2,0.44,0.3,0.73,0.3c0.29,0,0.53-0.1,0.73-0.3c0.2-0.2,0.3-0.44,0.3-0.72c0-0.28-0.1-0.53-0.3-0.73
		c-0.2-0.2-0.44-0.3-0.73-0.3c-0.26,0-0.47-0.08-0.64-0.25c-0.17-0.17-0.25-0.38-0.25-0.64c0-0.26,0.08-0.47,0.25-0.65
		c0.17-0.17,0.38-0.26,0.64-0.26c0.8,0,1.47,0.27,2.01,0.81c0.54,0.54,0.81,1.21,0.81,2.01c0,0.79-0.27,1.46-0.82,2
		C137.53,64.91,136.87,65.18,136.07,65.18z"/>
	<path d="M144.43,64.93c-0.17,0.17-0.39,0.25-0.65,0.25c-0.26,0-0.47-0.08-0.64-0.25c-0.17-0.17-0.25-0.38-0.25-0.64v-1.92
		c0-0.29-0.1-0.53-0.3-0.73c-0.2-0.2-0.44-0.3-0.73-0.3c-0.29,0-0.53,0.1-0.73,0.3c-0.2,0.2-0.3,0.44-0.3,0.72
		c0,0.29,0.1,0.53,0.3,0.73c0.2,0.2,0.44,0.3,0.73,0.3c0.26,0,0.47,0.08,0.65,0.25c0.17,0.17,0.26,0.38,0.26,0.64
		c0,0.26-0.09,0.47-0.26,0.64c-0.17,0.17-0.39,0.26-0.65,0.26c-0.8,0-1.47-0.27-2.01-0.81c-0.54-0.54-0.81-1.21-0.81-2.01
		c0-0.8,0.27-1.46,0.81-2s1.21-0.81,2.01-0.81c0.8,0,1.47,0.27,2.01,0.81c0.54,0.54,0.81,1.21,0.81,2.01v1.92
		C144.68,64.55,144.6,64.76,144.43,64.93z"/>
	<path d="M147.92,61.03c-0.14,0.15-0.34,0.25-0.6,0.29c-0.47,0.08-0.71,0.29-0.71,0.64v2.33c0,0.26-0.09,0.47-0.26,0.64
		c-0.17,0.17-0.39,0.25-0.64,0.25c-0.26,0-0.47-0.08-0.64-0.25c-0.17-0.17-0.25-0.38-0.25-0.64v-2.33c0-0.68,0.23-1.26,0.7-1.72
		c0.46-0.46,1.04-0.69,1.72-0.69c0.25,0,0.46,0.09,0.63,0.26c0.17,0.17,0.26,0.38,0.26,0.64C148.13,60.68,148.06,60.88,147.92,61.03
		z"/>
</g>
</svg>
